<?xml version="1.0" encoding="utf-8"?>
<!-- Generator: Adobe Illustrator 21.0.0, SVG Export Plug-In . SVG Version: 6.00 Build 0)  -->
<svg version="1.1" xmlns="http://www.w3.org/2000/svg" xmlns:xlink="http://www.w3.org/1999/xlink" x="0px" y="0px"
	 viewBox="0 0 512 512" style="enable-background:new 0 0 512 512;" xml:space="preserve">
<style type="text/css">
	.st0{fill:#369BFF;}
	.st1{fill:#F50057;}
	.st2{opacity:0.69;clip-path:url(#SVGID_2_);}
	.st3{fill:#F50057;stroke:#F50057;stroke-miterlimit:10;}
</style>
<g id="Layer_2">
	
		<ellipse transform="matrix(0.1819 -0.9833 0.9833 0.1819 -132.3534 567.1213)" class="st0" cx="274.7" cy="363.1" rx="28.4" ry="215.8"/>
</g>
<g id="Layer_1">
	<g>
		<path class="st1" d="M147.4,272.4l4.1,28.1l6-25.3l42.2-148.8h23.7l41.2,148.8l5.9,25.8l4.5-28.7l33.1-145.9h28.3l-51.7,213.3H259
			l-43.9-155.4l-3.4-16.3l-3.4,16.3l-45.6,155.4h-25.6L85.6,126.4h28.1L147.4,272.4z"/>
	</g>
	<g>
		<defs>
			<path id="SVGID_1_" d="M306.4,321.4l4.1,28.1l6-25.3l42.2-148.8h23.7l41.2,148.8l5.9,25.8l4.5-28.7l33.1-145.9h28.3l-51.7,213.3
				H418l-43.9-155.4l-3.4-16.3l-3.4,16.3l-45.6,155.4h-25.6l-51.6-213.3h28.1L306.4,321.4z"/>
		</defs>
		<use xlink:href="#SVGID_1_"  style="overflow:visible;fill:#1DE9B6;"/>
		<clipPath id="SVGID_2_">
			<use xlink:href="#SVGID_1_"  style="overflow:visible;"/>
		</clipPath>
		<g class="st2">
			<path class="st3" d="M147.4,272.4l4.1,28.1l6-25.3l42.2-148.8h23.7l41.2,148.8l5.9,25.8l4.5-28.7l33.1-145.9h28.3l-51.7,213.3
				H259l-43.9-155.4l-3.4-16.3l-3.4,16.3l-45.6,155.4h-25.6L85.6,126.4h28.1L147.4,272.4z"/>
		</g>
	</g>
</g>
</svg>
